# vtk DataFile Version 5.1
vtk output
ASCII
DATASET POLYDATA
POINTS 909 float
-5.6 14.0216 -0.26704 -2.064 14.0216 0.17536 -2.064 14.0216 -0.26704 
-5.6 14.0216 0.17536 -8.61552 14.0208 0.1752 -5.60048 14.0208 0.1752 
-5.60048 14.0208 -0.2672 -8.61552 14.0208 -0.2672 -20 -0.18064 -9.46736 
-20 -0.18064 -9.83232 -20 -0.35856 -9.46736 -20 -0.35856 -9.83232 
-8.61552 -14.56 -0.2672 -5.60048 -14.56 -0.2672 -8.61552 -14.56 0.1752 
-5.60048 -14.56 0.1752 -16.2915 -0.2296 -9.83232 -16.2915 -0.3096 -9.83232 
-5.60048 -13.8914 -0.1504 -5.60048 -13.8914 -0.2672 -5.60048 -13.8914 0.1752 
-5.60048 -13.8914 0.02 -5.60048 -3.59824 0.05392 -5.60048 -0.2696 -2.69888 
-5.60048 0.18736 -2.26416 -5.60048 -0.72304 -2.26512 -5.60048 -3.59824 -0.27184 
-5.60048 -3.028 -0.62176 -5.60048 -2.38656 0.20512 -5.60048 -3.59824 -0.37344 
-5.60048 -1.16656 -2.10256 -5.60048 -0.02912 -0.1072 -14.6006 1.84128 -0.05392 
-15.0733 1.68656 -0.37456 -15.2309 1.58224 0.55808 -5.60048 -0.12704 -0.0648 
-5.60048 -3.59824 0.2056 -5.60048 -0.86016 0.17568 -5.60048 -2.37872 -0.99408 
-15.9736 -0.57888 -1.79936 -15.3885 -0.2696 -1.92368 -15.2309 -1.37632 -1.58752 
-5.60048 -0.7624 0.0929599 -5.60048 -0.67888 -0.0419199 -5.60048 -1.2 0.69376 
-5.60048 -1.25664 0.90064 -5.60048 -2.2688 1.37632 -5.60048 -1.0624 0.62064 
-5.60048 -1.59952 -1.79936 -14.6006 3.05904 0.3472 -18.1328 3.05904 -0.0531201 
-14.6006 1.84128 0.3472 -5.60048 -0.2696 -0.0392001 -5.60048 -0.26144 -0.036 
-18.133 1.84128 -0.0531201 -5.60048 -0.27776 -0.036 -5.60048 -0.1832 -0.0681601 
-5.60048 -0.41216 -0.0648 -5.60048 -0.51008 -0.1072 -5.60048 -0.356 -0.0681601 
-11.9768 3.05904 -0.18768 -11.0123 3.05904 -0.50832 -13.7362 3.05904 -0.31376 
-11.0123 3.05904 0.36368 -13.8182 3.05904 0.000159979 -5.60048 -1.21072 1.08528 
-5.60048 -0.41312 1.508 -5.60048 0.02768 1.4656 -5.60048 -0.2696 2.5976 
-5.60048 -0.85872 2.57264 -5.60048 -2.15888 1.66432 -5.60048 -1.60592 2.31968 
-5.60048 -0.78048 1.39136 -5.60048 -0.27408 2.6016 -5.60048 -0.26512 2.6016 
-5.60048 1.83952 -0.99408 -5.60048 0.13968 -0.0419199 -5.60048 1.06032 -1.79936 
-5.60048 0.62736 -2.10256 -5.60048 3.05904 -0.37344 -5.60048 0.32096 0.17568 
-5.60048 0.2232 0.0929599 -5.60048 0.6608 0.69376 -5.60048 0.5232 0.62064 
-5.60048 1.84736 0.20512 -5.60048 3.05904 -0.27184 -5.60048 3.05904 0.05392 
-5.60048 3.05904 0.2056 -5.60048 0.4288 1.30352 -5.60048 0.31952 2.57264 
-16.0712 -2.04288 -0.00272012 -15.0733 -2.22576 -0.37456 -15.2309 -2.12144 0.55808 
-5.60048 0.71744 0.90064 -5.60048 1.7296 1.37632 -5.60048 0.67152 1.08528 
-16.0712 -1.7136 -1.0536 6.05856 1.53616 0.1512 5.91632 1.70624 0.0404801 
5.53472 1.59952 0.0799999 -5.60048 1.61968 1.66432 -5.60048 1.06672 2.31968 
-5.60048 13.3522 0.02 -5.60048 13.3522 -0.1504 -5.60048 13.3522 0.1752 
-5.60048 13.3522 -0.2672 -8.61552 -13.8914 -0.2672 -8.61552 -13.8914 0.1752 
-8.35616 -13.8914 -0.02512 -8.35616 -13.8914 -0.10512 -5.6512 -0.73664 -2.26064 
-9.38368 -0.2696 -3.74144 -5.58316 -0.2688 -2.69408 -5.6 -0.273908 -2.69408 
-5.6 -0.263694 -2.69408 -14.3096 1.14736 1.33984 -14.3096 0.65744 1.71168 
-12.8064 1.26192 1.39872 -8.35616 -3.59824 -0.18192 -8.35616 -3.59824 -0.10192 
-11.0123 -3.59824 0.36368 -11.0123 -3.59824 -0.50832 10.9453 1.81776 -0.36624 
12.4819 1.71056 -0.41504 12.4821 1.424 -1.29744 2.22032 -2.54592 0.1816 
-0.66464 -2.5184 0.19408 -3.832 -3.59744 0.15408 -7.4224 -1.72784 -1.7064 
13.7694 1.49232 0.0313599 9.6112 1.36688 0.15552 12.4819 1.17088 0.35952 
14.8891 -1.00416 -2.17488 15.257 -0.7976 -2.07152 14.9533 -1.15376 -1.78192 
8.3648 1.64464 -0.85008 1.79392 2.0536 -0.7056 5.88992 1.9888 -0.63984 
-12.8064 1.83632 0.35536 -14.3096 1.65728 0.59392 -6.73344 -0.88272 -0.0430398 
-7.14512 -0.25248 -0.37904 -16.5357 8.4088 0.94944 -16.0712 1.1744 -1.0536 
-15.2309 1.26528 -1.15952 -15.2309 0.83712 -1.58752 -14.3096 0.87904 -1.66688 
3.88416 1.64832 -0.92352 -16.2078 0.53952 -1.58016 -16.2078 -1.07872 -1.58016 
12.5475 0.54304 0.65392 13.9813 0.10032 0.7664 13.9157 0.7432 0.63344 
13.9157 -1.2808 0.63344 -17.8968 -0.1048 -1.09776 -17.8968 -0.4344 -1.09776 
-16.1778 -0.59824 -0.95936 -17.0954 -0.16096 -3.74144 -17.0954 -0.22784 -3.74144 
-17.0954 -0.08976 -2.15984 -14.6006 1.84128 -0.45504 -17.3322 -0.62336 -1.51968 
10.9653 0.05776 -3.59696 10.036 0.29904 -3.42864 10.8477 0.46816 -3.38592 
14.1202 -1.31824 -1.80496 10.879 0.77312 -2.95696 11.86 0.78272 -2.90864 
-17.3322 0.08416 -1.51968 10.0856 0.63648 -3.13408 -18.4354 -0.72064 -1.2296 
-16.9643 -1.436 -1.11696 -7.47264 -0.09696 -0.43472 -7.14512 -0.28672 -0.37904 
-7.47264 -0.44224 -0.43472 9.19472 0.44016 -3.22288 9.13264 0.09648 -3.39936 
9.59968 0.8584 -2.13904 9.14176 0.65744 -2.83424 14.9414 -1.30032 0.63472 
15.7218 -0.88656 0.79792 15.7218 0.34896 0.79792 14.9414 -1.92576 -1.1368 
13.7694 -2.09264 -0.9728 -7.26736 -0.75888 -0.33216 -7.43632 -0.82432 -0.22272 
-17.3322 -1.67856 -0.5352 8.51632 -1.62736 0.72816 7.0912 -1.904 0.71936 
8.68736 -1.5216 0.62544 7.41296 -1.83584 0.45648 9.22416 -1.45392 0.57456 
8.35664 -1.96128 0.80528 8.34944 -2.15648 1.09824 8.36688 0.37216 -3.0384 
-15.2195 -1.05728 -0.53408 -18.8032 -1.12368 -0.67904 -10.539 -0.8776 -0.5032 
-7.93152 -0.58016 -0.47712 -3.90624 -2.20768 1.75648 -0.66464 -2.37664 0.35632 
-0.66464 -2.37744 1.45248 -11.0123 -0.89648 -2.14624 -11.1866 -0.62608 -3.74144 
-16.0712 1.50368 -0.00272012 -15.2309 0.3216 -1.85024 -7.35968 -2.10736 1.56848 
-10.5634 -2.22384 0.908 -16.1778 0.05904 -0.95936 -16.9643 0.8968 -1.11696 
2.05632 -2.33328 1.74496 -0.66464 -2.08176 2.0936 -11.839 -0.4232 -0.7856 
7.66448 -0.032 1.10752 7.66448 -0.7552 1.08272 10.0376 -1.36112 0.92736 
-3.9112 -0.86752 2.66752 -0.66464 -1.75984 2.39248 -1.45648 -0.88832 2.732 
-0.66464 0.01392 2.79056 3.88416 1.69552 0.25216 4.22944 1.70096 0.1376 
-3.832 -3.59744 -0.32928 -5.6 -13.8906 -0.15024 -5.6 -3.59744 -0.27168 
7.41536 0.42496 -2.56304 9.54944 -2.05456 1.73072 8.21568 -1.66992 2.3072 
7.0912 -2.2024 1.8104 15.8243 -2.01456 -0.06656 12.4696 -1.47504 -1.85792 
12.5954 -1.28656 -2.8312 -15.2195 0.51808 -0.53408 -17.8968 0.58256 -0.66 
-17.3322 1.13936 -0.5352 14.0181 -1.18432 -2.42224 5.7896 3.38992 -0.0931201 
13.7694 -2.02992 0.0313599 12.4819 -1.70848 0.35952 12.4821 -1.9616 -1.29744 
5.804 3.19872 -0.29104 3.3872 3.7104 -0.0969601 2.50272 3.60896 0.0935998 
-5.6 -13.8906 0.02016 -17.8968 0.77664 -0.0432 7.0912 0.30976 2.73328 
8.34944 -0.52224 2.67856 8.34944 -0.01536 2.67856 7.0912 -0.53216 2.7752 
-6.80928 -1.7576 2.108 7.41296 -1.94064 0.32992 8.40912 -1.84928 0.3536 
-5.61504 -0.2696 2.6016 10.3336 -1.75376 0.93056 4.81152 -1.6752 0.93552 
7.66448 -1.86592 1.05568 5.46752 -2.31024 1.20272 -9.82736 -1.1304 0.86432 
-8.52752 -1.16928 0.4992 5.98912 -0.0608 -2.75696 4.46336 -0.05984 1.06544 
6.05856 1.11056 -1.7864 10.8442 0.93792 -1.9608 7.0912 -1.26048 2.60448 
6.05856 -2.31648 1.59088 6.05856 -2.21488 1.9288 -15.2309 -1.3872 1.47408 
-14.3096 -1.45728 1.54256 -15.0733 -0.608 1.83648 -15.8926 -1.57744 1.16912 
10.8442 -1.47552 -1.9608 11.86 -1.32032 -2.90864 -14.3096 -2.19648 0.59392 
12.4819 -2.24816 -0.41504 10.9453 -2.35536 -0.36624 10.9451 2.10544 -0.12384 
11.304 2.06016 -0.0545599 -14.8822 -1.03104 0.71904 -17.8968 -0.87568 0.79856 
-15.4264 -0.42 1.03248 11.304 -2.59776 -0.0545599 9.6112 -1.90448 0.15552 
-7.61136 -1.64688 2.1584 -6.92992 -1.6224 2.22912 -16.0712 -1.11888 1.4784 
-14.6006 3.05904 -0.45504 9.6112 1.39248 -1.39328 -6.92368 -1.54912 2.26064 
-7.91776 -2.10928 3.8 -7.924 -2.18256 3.76848 -7.61872 -1.48928 2.23216 
-15.8086 0.06144 1.72352 -7.4224 -0.02256 2.50896 -16.7526 3.05904 -0.2528 
-16.7621 3.05904 -0.25152 -16.9643 -1.436 1.01152 -17.3322 -1.67856 0.42976 
-6.9112 -1.26016 2.3752 -17.2811 3.0096 -0.17632 8.40912 1.31168 0.3536 
-3.9376 -1.48176 -1.88416 -0.66464 -1.08864 -2.17712 2.05632 -2.20112 -0.94688 
-16.9472 3.01984 -0.25664 -17.0202 3.05904 -0.24608 -17.3539 3.05904 -0.16576 
-15.2309 0.848 1.47408 -17.8968 -1.31584 -0.0432 -17.8968 0.0896 0.94528 
5.53472 1.56976 0.71792 6.16016 1.54144 0.79936 6.05856 1.49616 0.61904 
4.98752 1.72688 1.03152 5.46752 1.77264 1.20272 -15.8926 1.03824 1.16912 
-16.9643 -0.62336 1.49376 -17.3322 0.3448 1.31408 -15.0733 0.0688 1.83648 
-18.9453 -8.13776 0.84128 -18.9453 -3.54672 -0.13472 -18.9453 -8.13776 0.77728 
-17.7994 -3.53968 -0.10144 -18.9453 -3.54672 -0.19872 -17.8704 -3.59824 -0.0910401 
-16.1878 0.03808 0.9728 -17.6877 -3.59824 -0.0855999 -18.1328 -3.59824 -0.0531201 
-18.8032 -0.09696 -1.11152 6.05856 0.0032 2.83088 5.91632 1.13264 2.48896 
5.53472 0.3352 2.8048 -16.9643 0.8968 1.01152 6.05856 1.77888 1.59088 
5.53472 1.52064 2.18032 -17.3322 1.13936 0.42976 -5.6 -2.37792 -0.99392 
-1.45648 -2.57888 -0.76128 -3.832 -2.39104 0.15344 -5.6 -3.59744 0.20576 
8.2288 1.61744 0.0283201 6.05856 -0.86416 2.78752 11.3691 0.21248 1.07168 
11.1259 0.21248 1.02448 11.3261 1.16032 0.9248 10.7822 0.22784 0.66512 
11.4891 -0.2688 0.68832 10.7822 -0.76544 0.66512 10.9653 -0.59536 -3.59696 
10.0264 -0.43888 -3.54496 5.53472 1.72832 1.8576 -2.24304 -0.86096 0.77152 
-1.96704 -0.99632 0.83648 0.972319 -1.376 0.90896 11.6568 -0.09824 -3.57808 
9.07392 -0.49952 -3.41392 5.804 -0.15568 -2.74352 -2.35936 -0.2688 0.68016 
-2.25776 -0.36288 0.64976 0.341921 0.45184 0.88304 5.804 -0.38192 -2.74352 
4.98752 -0.46512 -2.67328 5.77264 -0.52176 -2.71616 5.77264 -0.01584 -2.71616 
5.804 -0.0424 -2.74352 5.804 -0.4952 -2.74352 -4.34848 -0.94688 0.59344 
6.46224 -0.72624 -2.64832 10.8477 -1.00576 -3.38592 10.879 -1.31072 -2.95696 
4.81152 1.1376 0.93552 0.972319 0.8384 0.90896 4.46336 1.31952 1.4312 
4.49968 1.30352 1.59552 0.972319 0.94208 0.99216 4.46336 1.30816 1.24464 
3.88416 1.8184 1.4992 10.0856 -1.17408 -3.13408 3.88416 1.748 1.84944 
-18.2515 -1.32704 -0.78128 2.5504 -1.03152 -2.28432 4.22944 -1.67024 -1.7136 
3.88416 0.24576 -2.48288 3.88416 -0.61584 -2.54848 -3.03008 -1.25872 1.21968 
-5.6 -0.77968 1.39152 0.972319 -0.87744 1.87728 11.0603 -0.04336 0.83248 
10.8478 0.11168 0.77184 10.6766 0.26816 0.93696 -18.4354 0.18144 -1.2296 
11.1158 1.30944 0.91008 11.197 1.27072 0.94736 11.1253 1.2176 0.97056 
-10.8421 -1.88096 3.17264 -14.6584 0.71264 0.16096 -18.4354 -1.476 0.2544 
-18.4354 0.9368 0.2544 -16.94 -0.17968 -9.46736 -18.133 -2.38048 -0.0531201 
-16.94 -0.35952 -9.46736 -19.7506 -0.2304 -9.46736 -18.2515 0.78784 -0.78128 
-19.7506 -0.3088 -9.46736 -11.1866 -0.04192 -3.74144 -11.1866 0.08688 -3.74144 
-9.7264 -0.2296 -3.74144 -17.0954 -0.31136 -3.74144 -11.1866 -0.49712 -3.74144 
-14.527 -0.57552 -3.74144 11.0018 1.1616 0.93104 11.3691 0.964 1.01664 
-9.7264 -0.3096 -3.74144 -14.527 -0.77504 -2.15984 11.3691 -0.032 1.16688 
-11.9768 -3.59824 -0.18768 -11.9768 -3.59824 -0.12368 -18.8032 -0.63392 -1.06384 
-18.8032 -0.0872 -1.19152 -12.8064 -2.51216 -0.676 -11.0123 -2.64384 -0.89696 
-14.6006 -2.38048 -0.45504 -18.8032 -0.6648 -1.13856 9.19472 -0.97776 -3.22288 
9.55904 -1.2744 -2.73024 11.3205 0.17392 1.04832 11.288 -0.032 1.0544 
-18.8032 -1.35104 0.30416 -18.8032 -1.3352 -0.0527999 -18.8032 -1.41664 -0.0527999 
-18.8032 -1.35104 -0.4096 -18.8032 -1.2744 -0.38368 9.07392 -0.03808 -3.41392 
10.6421 0.83408 0.84656 -18.8032 -1.2744 0.27808 -18.8032 -1.12368 0.57344 
-18.8032 -1.18912 -0.72688 10.2005 0.4664 0.66512 -10.5634 -1.46784 -1.87632 
-11.0101 -0.9336 -2.11184 -9.66592 -2.61872 -0.86144 -2.64752 -1.27136 0.97552 
-5.6 -1.1992 0.69376 -3.5456 -1.2792 1.01856 10.3336 1.21616 0.93056 
-18.8032 0.7352 -0.38368 -18.8032 0.796 -0.0527999 6.90048 1.36432 1.62928 
4.81152 0.8944 1.95424 4.46336 1.15616 1.73904 10.3952 1.31152 0.84976 
-18.8032 0.34624 -0.91328 -18.8032 0.39552 -0.97712 0.972319 0.33984 1.87728 
-18.8032 0.58448 -0.67904 -18.8032 0.81184 -0.4096 -18.8032 0.64992 -0.72688 
-18.8032 0.87744 -0.0527999 9.59968 -1.396 -2.13904 8.37824 -1.15904 -2.40224 
8.972 -1.10144 -2.97968 -18.8032 0.7352 0.27808 -18.8032 0.81184 0.30416 
3.88416 1.2064 2.45568 3.88416 0.34 2.80528 -17.6877 3.05904 -0.0855999 
-18.9453 7.59856 0.84128 -17.8704 3.05904 -0.0910401 -18.9453 7.59856 0.77728 
10.8726 1.316 1.08448 10.8726 1.396 1.08448 2.05632 1.79568 1.74496 
-17.7994 3.00048 -0.10144 10.4859 1.49152 1.20464 2.22032 2.00832 0.1816 
10.7586 1.36304 1.20832 10.9157 1.35264 0.90992 -18.9453 3.00752 -0.13472 
-18.9453 3.00752 -0.19872 2.50272 3.60896 -0.36896 10.7586 1.44304 1.20832 
10.7205 1.45872 1.39936 -18.8032 0.58448 0.57344 -18.8032 0.34624 0.80784 
-18.2515 0.78784 0.67584 2.268 1.07728 -1.74256 -18.8032 -0.0952 1.0056 
10.7205 1.37872 1.39936 10.7205 1.4096 1.64096 10.7205 1.3296 1.64096 
2.05632 1.7912 0.27232 -18.8032 0.39552 0.87152 -18.3304 0.15104 1.15744 
-18.8032 -0.0872 1.08592 -18.8032 0.64992 0.62144 9.54944 1.48496 0.95968 
3.39376 3.70272 -0.17696 10.7205 0.59776 2.12704 10.7205 0.23824 2.3024 
10.7205 -0.03664 2.25376 10.4277 -0.0336 2.40464 10.7205 0.95616 2.05872 
-2.3904 -0.56864 0.61056 -4.5464 -0.72592 0.2744 -4.67568 -0.39664 0.11792 
-5.6 -0.50928 -0.10704 0.127199 0.04048 -2.39216 10.7205 0.95616 1.97872 
-2.3904 0.03104 0.61056 -4.67568 -0.14096 0.11792 -4.1728 -0.2688 0.28112 
10.2621 0.90144 2.06064 10.4277 1.26704 1.9152 9.54944 1.51696 1.73072 
9.89232 0.52208 0.7856 10.0982 1.39456 1.17856 -3.5456 -1.22064 0.8304 
-5.6 -1.0616 0.6208 2.50272 -4.14656 0.0935998 -5.11472 -13.8906 0.02352 
3.3872 -4.248 -0.0969601 -5.6 -1.20992 1.08544 9.22416 0.91632 0.57456 
-3.54576 -0.11952 1.62048 -11.839 -0.116 -0.7856 -12.8064 -1.21136 -1.9184 
-12.8064 -1.9336 -1.33936 8.68736 0.984 0.62544 -12.5317 -0.86768 -2.05088 
-12.8064 -2.37552 0.35536 -11.0123 -2.37072 0.36352 8.51632 1.08976 0.72816 
-18.8032 -0.63392 0.9584 -18.8032 -0.88544 0.80784 -18.8032 -0.93472 0.87152 
5.88992 -2.5264 -0.63984 5.804 -3.73632 -0.29104 1.79392 -2.5912 -0.7056 
-18.8032 -0.6648 1.03312 5.91632 -2.24384 0.0404801 5.53472 -2.13712 0.0799999 
5.7896 -3.92752 -0.0931201 8.35664 1.42368 0.80528 6.05856 -1.64816 -1.7864 
-18.8032 -1.18912 0.62144 9.95648 1.4288 1.36432 8.34944 1.66016 1.37312 
4.22944 -2.23856 0.1376 -3.9112 0.32992 2.66752 8.3784 -3.21664 -0.0353601 
10.9451 -2.64304 -0.12384 -10.8483 -1.95424 3.14112 9.95648 0.58944 2.17824 
9.73824 0.20368 2.27536 9.54944 1.03296 2.22496 -11.0123 0.35728 -2.14624 
-7.4224 1.18864 -1.7064 -5.6512 0.19744 -2.26064 9.54944 0.2648 2.5048 
-5.6 -3.59744 -0.37344 -5.6 -3.59744 0.05408 -5.6 -0.72576 -2.264 
-5.6 -1.16576 -2.10256 -5.6 -1.59872 -1.79936 8.21568 1.13232 2.3072 
-18.2957 8.4088 0.94944 -18.2957 8.4088 1.01344 0.860001 3.46848 -0.37824 
-5.6 -2.38576 0.20528 -16.5357 8.4088 1.01344 -17.2194 8.4088 1.01344 
-11.9768 3.05904 -0.12368 3.34896 3.75584 -0.13664 -10.8483 1.41504 3.14112 
-10.8421 1.34176 3.17264 -7.924 1.64336 3.76848 -5.6 -13.8906 0.17536 
-5.6 -14.5592 0.17536 -5.6 -0.27696 -0.03584 -5.6 -0.2688 -0.0390399 
-5.6 -13.8906 -0.26704 -5.6 -14.5592 -0.26704 -5.6 -0.3552 -0.0681601 
-5.11472 13.353 -0.1536 -5.16656 -0.65728 0.0335999 -5.6 -0.85936 0.17584 
-5.6 0.18688 -2.26432 -5.61456 0.18752 -2.264 8.3784 2.67904 -0.0353601 
4.46336 1.25168 1.07648 -5.6 -0.67808 -0.04176 -5.6 -0.12624 -0.0646398 
-5.6 -0.1824 -0.0681601 -5.6 -0.66304 -0.0387201 -5.6 -0.26064 -0.03584 
-5.6 -0.41136 -0.0646398 -5.6 -0.02832 -0.10704 -5.6 -1.25584 0.9008 
-5.6 -2.268 1.37632 -5.6 -2.15808 1.66432 -6.73344 0.34352 -0.0430398 
-5.6 -1.60512 2.31984 -5.6 -0.85792 2.5728 -5.6 -0.41232 1.50816 
-5.6 1.06112 -1.79936 -5.6 0.62816 -2.10256 -5.6 0.12544 -0.0387201 
-5.6 1.84032 -0.99392 -5.6 0.14048 -0.04176 3.34896 -4.29344 -0.13664 
-7.26736 0.21968 -0.33216 -7.93152 0.04096 -0.47712 2.05632 1.61616 2.07088 
-7.43632 0.28512 -0.22272 -10.539 0.3384 -0.5032 -10.8539 -1.51808 1.94288 
-10.0462 -0.88256 2.27392 -12.8064 -1.98656 1.14928 -0.66464 1.83904 0.35632 
8.3648 -2.18224 -0.85008 4.46336 0.51424 2.0992 4.46336 -0.03824 2.20992 
5.60208 0.50096 -2.3984 -5.6 0.32176 0.17584 -5.6 1.84816 0.20528 
-5.6 3.05984 -0.37344 -5.6 3.05984 0.20576 -5.6 3.05984 0.05408 
-5.6 3.05984 -0.27168 -5.6 -0.12528 1.50816 -5.6 0.32032 2.5728 
-5.6 1.06752 2.31984 -5.6 0.58128 1.19808 -5.6 1.7304 1.37632 
-5.6 0.67232 1.08544 -5.6 1.62048 1.66432 -5.6 0.71824 0.9008 
9.6112 -1.93008 -1.39328 -5.6 0.6616 0.69376 -10.5634 0.92864 -1.87632 
-5.6 0.524 0.6208 7.41296 1.40304 0.32992 -10.5634 1.2048 -1.672 
-9.66592 2.07952 -0.86144 -5.6 13.353 0.02016 -5.6 13.353 -0.15024 
-5.6 13.353 0.17536 -5.6 13.353 -0.26704 -2.064 -14.5592 0.17536 
-2.064 -14.5592 -0.26704 21.772 -0.4512 -0.12496 21.772 -0.0864 -0.12496 
23.1998 -0.2688 0.4624 20.6259 -1.22048 -0.00496006 -8.35616 3.05904 -0.18192 
-8.35616 3.05904 -0.10192 6.05856 -2.07376 0.1512 11.3691 -0.75008 1.07168 
11.3691 -0.75008 1.15168 11.3261 -1.69792 0.9248 2.50272 -4.14656 -0.36896 
-4.23632 -0.2688 -2.32288 -0.66464 0.55104 -2.17712 3.88416 -2.23312 0.25216 
-7.35968 1.56816 1.56848 5.53472 -2.13888 0.84624 8.34944 -2.19776 1.37312 
6.90048 -1.90192 1.62928 4.46336 -1.85712 1.4312 4.49968 -1.84112 1.59552 
-6.80928 1.2184 2.108 -7.61136 1.10768 2.1584 -6.92992 1.0832 2.22912 
5.53472 -2.26592 1.8576 -3.9376 0.94416 -1.88416 -0.66464 1.72384 -0.96256 
-0.66464 1.9808 0.19408 -9.82736 0.5912 0.86432 -8.52752 0.63008 0.4992 
4.46336 -1.78928 1.07648 4.46336 -1.84576 1.24464 -3.832 3.05984 0.15408 
20.8414 -1.16352 0.32816 20.8168 -0.41664 -0.49904 -10.8477 -1.45328 1.9976 
-1.96704 0.45872 0.83648 -10.8526 -1.50752 1.95392 -11.441 -1.6264 1.75696 
20.8168 -0.7832 -0.39104 11.1253 -1.7552 0.97056 11.3691 -1.5016 1.01664 
11.0018 -1.6992 0.93104 11.197 -1.80832 0.94736 -10.8498 -1.47824 1.98688 
19.379 -1.37808 0.39344 19.379 -1.52592 0.0079999 19.379 -1.23136 -0.6448 
7.66448 1.32832 1.05568 11.1158 -1.84704 0.91008 10.9157 -1.89024 0.90992 
10.8726 -1.8536 1.08448 10.8726 -1.9336 1.08448 10.4859 -2.02912 1.20464 
20.6259 0.46832 -0.328 20.6259 0.68288 -0.00496006 10.0982 -1.93216 1.17856 
10.3952 -1.84912 0.84976 10.6421 -1.37168 0.84656 19.379 0.98832 0.0079999 
10.6766 -0.80576 0.93696 19.379 0.14208 -0.90352 -10.8802 -1.40688 2.01376 
10.7586 -1.98064 1.20832 10.7205 -1.99632 1.39936 17.9669 0.90736 -0.95792 
17.7642 0.16272 -1.324 -11.4405 -1.08592 2.08848 9.54944 -2.02256 0.95968 
-12.8064 -1.80112 1.39872 10.7586 -1.90064 1.20832 10.7205 -1.91632 1.39936 
20.8414 0.62592 0.32816 10.7205 -1.8672 1.64096 10.7205 -1.9472 1.64096 
20.6259 0.45936 0.58576 21.772 -0.08672 0.6776 9.95648 -1.9664 1.36432 
-12.8064 -0.0936 2.10608 10.4277 -1.80464 1.9152 19.379 0.64864 0.57472 
-16.5357 -8.948 0.94944 -13.7362 -3.59824 -0.31376 -14.6006 -3.59824 -0.45504 
17.9669 1.06016 0.31584 19.379 0.14624 0.81472 20.8168 -0.11472 0.79776 
-6.92368 1.00992 2.26064 18.2888 1.15344 0.11504 -0.66464 1.75632 1.77312 
-6.9112 0.72096 2.3752 -7.61872 0.95008 2.23216 -10.9307 0.6576 2.09984 
-10.5634 1.68464 0.908 11.1259 -0.75008 1.02448 11.4822 -0.2688 0.69856 
19.379 -0.45776 -0.94336 21.772 -0.68016 0.57008 11.2069 -0.2688 0.88912 
11.0603 -0.49424 0.83248 11.2829 -0.2688 1.02736 11.1259 -0.5056 0.98864 
11.3691 -0.5056 1.08688 11.2986 -0.2688 1.03376 20.8168 -0.768 0.69232 
7.0912 0.72288 2.60448 7.0912 1.46608 2.12288 5.91632 -1.67024 2.48896 
3.88416 -2.0752 2.17536 -2.24304 0.32336 0.77152 -14.6006 -3.59824 0.3472 
-13.8182 -3.59824 0.000159979 -10.8539 0.97888 1.94288 -0.66464 1.22224 2.39248 
-14.6006 -2.38048 -0.05392 7.0912 1.3664 0.71936 3.88416 -1.3104 2.66976 
11.1259 -0.032 0.98864 15.7664 1.06448 -1.31664 16.6677 0.0184 -1.59008 
7.41296 1.29824 0.45648 10.8478 -0.64928 0.77184 16.8029 1.25712 -0.90432 
17.9669 1.10496 -0.71344 17.9669 1.2144 -0.43808 -3.832 1.85344 0.15344 
-7.91776 1.57008 3.8 -8.61552 13.3522 -0.2672 -8.61552 13.3522 0.1752 
-8.35616 13.3522 -0.02512 -8.35616 13.3522 -0.10512 11.3205 -0.71152 1.04832 
4.81152 -1.432 1.95424 4.46336 -1.05184 2.0992 7.0912 1.60768 0.95344 
-14.527 0.03632 -3.74144 -14.527 0.23584 -2.15984 5.53472 -0.54544 2.8496 
6.90048 -0.7712 2.2624 6.90048 0.2336 2.2624 -11.0101 0.3944 -2.11184 
-5.16656 0.11968 0.0335999 -3.832 3.05984 -0.32928 20.8168 -0.42288 0.79776 
-3.5456 0.68304 0.8304 -2.64752 0.73376 0.97552 7.0912 1.6648 1.8104 
19.379 -0.68384 0.81472 16.8029 0.94176 0.4888 16.8029 1.41712 -0.29424 
18.2888 -1.69104 0.11504 17.9669 -1.752 -0.43808 17.7642 -0.70032 -1.324 
14.8891 0.46656 -2.17488 14.9816 -0.15136 -2.36432 14.5368 0.34528 -2.49744 
14.0181 0.44384 -2.68544 14.0181 0.64672 -2.42224 14.0181 -0.08752 -2.87168 
12.5954 0.74896 -2.8312 13.2949 0.26736 -3.07664 -12.8064 1.3944 -1.33936 
-12.8064 0.67216 -1.9184 -12.5317 0.32848 -2.05088 -14.3096 -1.82128 -1.29392 
12.4728 0.49776 -3.20064 12.4728 0.2928 -3.32736 12.4728 -0.10112 -3.43808 
11.6568 0.30448 -3.45712 -14.5269 -0.77488 -1.9712 -3.03008 0.72112 1.21968 
-3.9376 1.78128 1.456 17.9669 -1.11056 -1.13984 17.9669 -1.64256 -0.71344 
16.8029 -1.55632 -1.15728 16.6677 -0.556 -1.59008 10.2005 -1.004 0.66512 
-11.0123 1.83152 0.36352 -4.34848 0.40928 0.59344 -3.5456 0.7416 1.01856 
17.9669 -1.36672 0.52976 16.8029 -1.79472 -0.90432 15.8174 -1.54848 0.46096 
16.8029 -1.95472 -0.29424 -4.5464 0.18832 0.2744 -10.8477 0.91408 1.9976 
0.972319 -0.42208 0.9392 3.88416 -2.2856 1.84944 -11.441 1.0872 1.75696 
4.46336 -1.69376 1.73904 10.7205 -1.49376 1.97872 15.7629 0.21568 -1.72016 
3.62688 -0.7208 2.144 14.9533 0.61616 -1.78192 10.7205 -1.49376 2.05872 
9.54944 -1.57056 2.22496 15.8243 1.47696 -0.06656 10.7205 -0.77584 2.2224 
10.2621 -1.43904 2.06064 15.8176 1.47616 -0.72832 10.7205 -1.13536 2.20704 
10.7205 -0.50096 2.33376 9.54944 -0.8024 2.5048 -12.8064 1.97296 -0.676 
-5.11472 -13.8906 -0.1536 0.860001 -4.00608 -0.37824 3.39376 -4.24032 -0.17696 
-14.3096 1.28208 -1.29392 -14.5269 0.23568 -1.9712 -14.6006 -2.38048 0.3472 
-14.5269 0.04352 -2.03376 15.257 0.26 -2.07152 14.5368 -0.88288 -2.49744 
14.9414 1.38816 -1.1368 14.5368 -0.5456 -2.60592 14.1202 0.78064 -1.80496 
14.0181 -0.98144 -2.68544 13.967 1.77328 -0.0588801 14.9414 0.76272 0.63472 
15.8174 1.01088 0.46096 2.05632 -2.3288 0.27232 12.4696 0.93744 -1.85792 
0.972319 -1.47968 0.99216 13.7694 1.55504 -0.9728 9.89232 -1.05968 0.7856 
2.05632 -1.44192 2.61008 -5.11472 13.353 0.02352 -4.73712 13.353 -0.10512 
-2.54272 13.353 -0.26704 -2.54272 13.353 0.17536 -14.0066 -0.64432 1.9504 
9.73824 -0.74128 2.27536 -14.3096 -1.19664 1.71168 13.2949 -0.4296 -3.17376 
13.2949 -0.80496 -3.07664 12.4728 -0.8304 -3.32736 -17.0954 -0.37824 -3.74144 
-17.0954 -0.44944 -2.15984 -18.2957 -8.948 1.01344 -17.2194 -8.948 1.01344 
-16.5357 -8.948 1.01344 -18.2957 -8.948 0.94944 -4.73712 13.353 -0.02512 
-16.7526 -3.59824 -0.2528 -16.7621 -3.59824 -0.25152 -17.0202 -3.59824 -0.24608 
-17.3539 -3.59824 -0.16576 -17.2811 -3.5488 -0.17632 -16.9472 -3.55904 -0.25664 
11.6568 -0.84208 -3.45712 -15.2309 -1.80448 -1.15952 8.2288 -2.15504 0.0283201 
12.4728 -1.03536 -3.20064 15.7664 -1.60208 -1.31664 15.8176 -2.01376 -0.72832 
-2.54272 -13.8906 -0.26704 -2.54272 -13.8906 0.17536 -4.73712 -13.8906 -0.02512 
15.7629 -0.75328 -1.72016 16.0125 -0.36128 -1.72016 -4.73712 -13.8906 -0.10512 

POLYGONS 1817 5448
OFFSETS vtktypeint64
0 3 6 9 12 15 18 21 24 
27 30 33 36 39 42 45 48 51 
54 57 60 63 66 69 72 75 78 
81 84 87 90 93 96 99 102 105 
108 111 114 117 120 123 126 129 132 
135 138 141 144 147 150 153 156 159 
162 165 168 171 174 177 180 183 186 
189 192 195 198 201 204 207 210 213 
216 219 222 225 228 231 234 237 240 
243 246 249 252 255 258 261 264 267 
270 273 276 279 282 285 288 291 294 
297 300 303 306 309 312 315 318 321 
324 327 330 333 336 339 342 345 348 
351 354 357 360 363 366 369 372 375 
378 381 384 387 390 393 396 399 402 
405 408 411 414 417 420 423 426 429 
432 435 438 441 444 447 450 453 456 
459 462 465 468 471 474 477 480 483 
486 489 492 495 498 501 504 507 510 
513 516 519 522 525 528 531 534 537 
540 543 546 549 552 555 558 561 564 
567 570 573 576 579 582 585 588 591 
594 597 600 603 606 609 612 615 618 
621 624 627 630 633 636 639 642 645 
648 651 654 657 660 663 666 669 672 
675 678 681 684 687 690 693 696 699 
702 705 708 711 714 717 720 723 726 
729 732 735 738 741 744 747 750 753 
756 759 762 765 768 771 774 777 780 
783 786 789 792 795 798 801 804 807 
810 813 816 819 822 825 828 831 834 
837 840 843 846 849 852 855 858 861 
864 867 870 873 876 879 882 885 888 
891 894 897 900 903 906 909 912 915 
918 921 924 927 930 933 936 939 942 
945 948 951 954 957 960 963 966 969 
972 975 978 981 984 987 990 993 996 
999 1002 1005 1008 1011 1014 1017 1020 1023 
1026 1029 1032 1035 1038 1041 1044 1047 1050 
1053 1056 1059 1062 1065 1068 1071 1074 1077 
1080 1083 1086 1089 1092 1095 1098 1101 1104 
1107 1110 1113 1116 1119 1122 1125 1128 1131 
1134 1137 1140 1143 1146 1149 1152 1155 1158 
1161 1164 1167 1170 1173 1176 1179 1182 1185 
1188 1191 1194 1197 1200 1203 1206 1209 1212 
1215 1218 1221 1224 1227 1230 1233 1236 1239 
1242 1245 1248 1251 1254 1257 1260 1263 1266 
1269 1272 1275 1278 1281 1284 1287 1290 1293 
1296 1299 1302 1305 1308 1311 1314 1317 1320 
1323 1326 1329 1332 1335 1338 1341 1344 1347 
1350 1353 1356 1359 1362 1365 1368 1371 1374 
1377 1380 1383 1386 1389 1392 1395 1398 1401 
1404 1407 1410 1413 1416 1419 1422 1425 1428 
1431 1434 1437 1440 1443 1446 1449 1452 1455 
1458 1461 1464 1467 1470 1473 1476 1479 1482 
1485 1488 1491 1494 1497 1500 1503 1506 1509 
1512 1515 1518 1521 1524 1527 1530 1533 1536 
1539 1542 1545 1548 1551 1554 1557 1560 1563 
1566 1569 1572 1575 1578 1581 1584 1587 1590 
1593 1596 1599 1602 1605 1608 1611 1614 1617 
1620 1623 1626 1629 1632 1635 1638 1641 1644 
1647 1650 1653 1656 1659 1662 1665 1668 1671 
1674 1677 1680 1683 1686 1689 1692 1695 1698 
1701 1704 1707 1710 1713 1716 1719 1722 1725 
1728 1731 1734 1737 1740 1743 1746 1749 1752 
1755 1758 1761 1764 1767 1770 1773 1776 1779 
1782 1785 1788 1791 1794 1797 1800 1803 1806 
1809 1812 1815 1818 1821 1824 1827 1830 1833 
1836 1839 1842 1845 1848 1851 1854 1857 1860 
1863 1866 1869 1872 1875 1878 1881 1884 1887 
1890 1893 1896 1899 1902 1905 1908 1911 1914 
1917 1920 1923 1926 1929 1932 1935 1938 1941 
1944 1947 1950 1953 1956 1959 1962 1965 1968 
1971 1974 1977 1980 1983 1986 1989 1992 1995 
1998 2001 2004 2007 2010 2013 2016 2019 2022 
2025 2028 2031 2034 2037 2040 2043 2046 2049 
2052 2055 2058 2061 2064 2067 2070 2073 2076 
2079 2082 2085 2088 2091 2094 2097 2100 2103 
2106 2109 2112 2115 2118 2121 2124 2127 2130 
2133 2136 2139 2142 2145 2148 2151 2154 2157 
2160 2163 2166 2169 2172 2175 2178 2181 2184 
2187 2190 2193 2196 2199 2202 2205 2208 2211 
2214 2217 2220 2223 2226 2229 2232 2235 2238 
2241 2244 2247 2250 2253 2256 2259 2262 2265 
2268 2271 2274 2277 2280 2283 2286 2289 2292 
2295 2298 2301 2304 2307 2310 2313 2316 2319 
2322 2325 2328 2331 2334 2337 2340 2343 2346 
2349 2352 2355 2358 2361 2364 2367 2370 2373 
2376 2379 2382 2385 2388 2391 2394 2397 2400 
2403 2406 2409 2412 2415 2418 2421 2424 2427 
2430 2433 2436 2439 2442 2445 2448 2451 2454 
2457 2460 2463 2466 2469 2472 2475 2478 2481 
2484 2487 2490 2493 2496 2499 2502 2505 2508 
2511 2514 2517 2520 2523 2526 2529 2532 2535 
2538 2541 2544 2547 2550 2553 2556 2559 2562 
2565 2568 2571 2574 2577 2580 2583 2586 2589 
2592 2595 2598 2601 2604 2607 2610 2613 2616 
2619 2622 2625 2628 2631 2634 2637 2640 2643 
2646 2649 2652 2655 2658 2661 2664 2667 2670 
2673 2676 2679 2682 2685 2688 2691 2694 2697 
2700 2703 2706 2709 2712 2715 2718 2721 2724 
2727 2730 2733 2736 2739 2742 2745 2748 2751 
2754 2757 2760 2763 2766 2769 2772 2775 2778 
2781 2784 2787 2790 2793 2796 2799 2802 2805 
2808 2811 2814 2817 2820 2823 2826 2829 2832 
2835 2838 2841 2844 2847 2850 2853 2856 2859 
2862 2865 2868 2871 2874 2877 2880 2883 2886 
2889 2892 2895 2898 2901 2904 2907 2910 2913 
2916 2919 2922 2925 2928 2931 2934 2937 2940 
2943 2946 2949 2952 2955 2958 2961 2964 2967 
2970 2973 2976 2979 2982 2985 2988 2991 2994 
2997 3000 3003 3006 3009 3012 3015 3018 3021 
3024 3027 3030 3033 3036 3039 3042 3045 3048 
3051 3054 3057 3060 3063 3066 3069 3072 3075 
3078 3081 3084 3087 3090 3093 3096 3099 3102 
3105 3108 3111 3114 3117 3120 3123 3126 3129 
3132 3135 3138 3141 3144 3147 3150 3153 3156 
3159 3162 3165 3168 3171 3174 3177 3180 3183 
3186 3189 3192 3195 3198 3201 3204 3207 3210 
3213 3216 3219 3222 3225 3228 3231 3234 3237 
3240 3243 3246 3249 3252 3255 3258 3261 3264 
3267 3270 3273 3276 3279 3282 3285 3288 3291 
3294 3297 3300 3303 3306 3309 3312 3315 3318 
3321 3324 3327 3330 3333 3336 3339 3342 3345 
3348 3351 3354 3357 3360 3363 3366 3369 3372 
3375 3378 3381 3384 3387 3390 3393 3396 3399 
3402 3405 3408 3411 3414 3417 3420 3423 3426 
3429 3432 3435 3438 3441 3444 3447 3450 3453 
3456 3459 3462 3465 3468 3471 3474 3477 3480 
3483 3486 3489 3492 3495 3498 3501 3504 3507 
3510 3513 3516 3519 3522 3525 3528 3531 3534 
3537 3540 3543 3546 3549 3552 3555 3558 3561 
3564 3567 3570 3573 3576 3579 3582 3585 3588 
3591 3594 3597 3600 3603 3606 3609 3612 3615 
3618 3621 3624 3627 3630 3633 3636 3639 3642 
3645 3648 3651 3654 3657 3660 3663 3666 3669 
3672 3675 3678 3681 3684 3687 3690 3693 3696 
3699 3702 3705 3708 3711 3714 3717 3720 3723 
3726 3729 3732 3735 3738 3741 3744 3747 3750 
3753 3756 3759 3762 3765 3768 3771 3774 3777 
3780 3783 3786 3789 3792 3795 3798 3801 3804 
3807 3810 3813 3816 3819 3822 3825 3828 3831 
3834 3837 3840 3843 3846 3849 3852 3855 3858 
3861 3864 3867 3870 3873 3876 3879 3882 3885 
3888 3891 3894 3897 3900 3903 3906 3909 3912 
3915 3918 3921 3924 3927 3930 3933 3936 3939 
3942 3945 3948 3951 3954 3957 3960 3963 3966 
3969 3972 3975 3978 3981 3984 3987 3990 3993 
3996 3999 4002 4005 4008 4011 4014 4017 4020 
4023 4026 4029 4032 4035 4038 4041 4044 4047 
4050 4053 4056 4059 4062 4065 4068 4071 4074 
4077 4080 4083 4086 4089 4092 4095 4098 4101 
4104 4107 4110 4113 4116 4119 4122 4125 4128 
4131 4134 4137 4140 4143 4146 4149 4152 4155 
4158 4161 4164 4167 4170 4173 4176 4179 4182 
4185 4188 4191 4194 4197 4200 4203 4206 4209 
4212 4215 4218 4221 4224 4227 4230 4233 4236 
4239 4242 4245 4248 4251 4254 4257 4260 4263 
4266 4269 4272 4275 4278 4281 4284 4287 4290 
4293 4296 4299 4302 4305 4308 4311 4314 4317 
4320 4323 4326 4329 4332 4335 4338 4341 4344 
4347 4350 4353 4356 4359 4362 4365 4368 4371 
4374 4377 4380 4383 4386 4389 4392 4395 4398 
4401 4404 4407 4410 4413 4416 4419 4422 4425 
4428 4431 4434 4437 4440 4443 4446 4449 4452 
4455 4458 4461 4464 4467 4470 4473 4476 4479 
4482 4485 4488 4491 4494 4497 4500 4503 4506 
4509 4512 4515 4518 4521 4524 4527 4530 4533 
4536 4539 4542 4545 4548 4551 4554 4557 4560 
4563 4566 4569 4572 4575 4578 4581 4584 4587 
4590 4593 4596 4599 4602 4605 4608 4611 4614 
4617 4620 4623 4626 4629 4632 4635 4638 4641 
4644 4647 4650 4653 4656 4659 4662 4665 4668 
4671 4674 4677 4680 4683 4686 4689 4692 4695 
4698 4701 4704 4707 4710 4713 4716 4719 4722 
4725 4728 4731 4734 4737 4740 4743 4746 4749 
4752 4755 4758 4761 4764 4767 4770 4773 4776 
4779 4782 4785 4788 4791 4794 4797 4800 4803 
4806 4809 4812 4815 4818 4821 4824 4827 4830 
4833 4836 4839 4842 4845 4848 4851 4854 4857 
4860 4863 4866 4869 4872 4875 4878 4881 4884 
4887 4890 4893 4896 4899 4902 4905 4908 4911 
4914 4917 4920 4923 4926 4929 4932 4935 4938 
4941 4944 4947 4950 4953 4956 4959 4962 4965 
4968 4971 4974 4977 4980 4983 4986 4989 4992 
4995 4998 5001 5004 5007 5010 5013 5016 5019 
5022 5025 5028 5031 5034 5037 5040 5043 5046 
5049 5052 5055 5058 5061 5064 5067 5070 5073 
5076 5079 5082 5085 5088 5091 5094 5097 5100 
5103 5106 5109 5112 5115 5118 5121 5124 5127 
5130 5133 5136 5139 5142 5145 5148 5151 5154 
5157 5160 5163 5166 5169 5172 5175 5178 5181 
5184 5187 5190 5193 5196 5199 5202 5205 5208 
5211 5214 5217 5220 5223 5226 5229 5232 5235 
5238 5241 5244 5247 5250 5253 5256 5259 5262 
5265 5268 5271 5274 5277 5280 5283 5286 5289 
5292 5295 5298 5301 5304 5307 5310 5313 5316 
5319 5322 5325 5328 5331 5334 5337 5340 5343 
5346 5349 5352 5355 5358 5361 5364 5367 5370 
5373 5376 5379 5382 5385 5388 5391 5394 5397 
5400 5403 5406 5409 5412 5415 5418 5421 5424 
5427 5430 5433 5436 5439 5442 5445 5448 
CONNECTIVITY vtktypeint64
0 1 2 1 0 3 4 5 6 
4 6 7 8 9 10 11 10 9 
12 13 14 15 14 13 9 16 11 
11 16 17 18 13 19 20 15 21 
22 21 18 13 18 21 13 21 15 
23 24 25 18 26 22 27 28 29 
26 29 28 30 25 31 32 33 34 
31 35 30 25 24 31 36 22 28 
28 27 37 22 26 28 38 37 27 
39 40 41 37 38 42 42 38 43 
44 45 46 37 47 28 48 43 38 
49 50 51 52 30 53 54 32 51 
52 55 30 56 53 30 57 58 30 
59 30 55 59 57 30 60 61 62 
58 43 48 48 30 58 49 63 64 
44 28 47 45 65 46 46 28 44 
66 67 68 68 69 66 70 46 65 
70 65 71 72 66 69 73 68 74 
65 72 69 65 69 71 75 76 77 
77 31 78 78 31 24 75 79 80 
35 56 30 76 31 77 76 75 81 
82 83 84 84 80 79 81 75 80 
85 84 79 86 84 85 87 84 86 
88 89 67 80 84 83 90 91 92 
93 94 95 82 94 93 96 91 90 
97 98 99 94 100 95 84 94 82 
88 95 100 100 101 88 89 88 101 
68 67 89 102 86 103 103 86 85 
5 102 6 104 102 5 102 103 6 
105 6 103 12 106 19 12 19 13 
20 21 107 106 107 108 106 108 109 
106 109 19 14 107 106 14 106 12 
14 20 107 20 14 15 19 109 18 
108 107 21 108 21 22 110 111 25 
112 113 114 111 23 25 25 30 110 
115 116 117 26 109 118 26 18 109 
118 109 119 108 119 109 108 22 119 
22 36 119 36 120 119 118 119 121 
121 29 118 120 121 119 28 120 36 
122 123 124 125 126 127 48 128 30 
48 38 128 110 30 128 129 130 131 
132 133 134 128 38 27 135 136 137 
138 139 117 117 139 115 32 139 138 
37 42 140 52 53 141 142 60 62 
141 53 56 56 35 141 55 52 141 
143 144 145 146 145 144 135 147 136 
145 148 143 149 39 41 150 151 152 
144 143 33 144 33 32 150 153 151 
154 155 156 152 131 150 157 158 159 
54 51 50 160 32 54 39 149 161 
162 163 164 134 165 132 166 167 164 
161 168 39 163 169 164 170 149 171 
35 31 172 166 164 169 141 35 172 
173 55 141 174 58 57 173 174 57 
173 59 55 175 163 176 173 57 59 
169 163 175 177 169 178 179 180 181 
182 183 165 184 43 58 184 185 42 
43 184 42 42 185 140 186 171 96 
169 175 178 96 90 186 187 188 189 
189 188 190 191 189 190 192 193 188 
194 175 176 195 156 196 184 197 185 
184 58 198 198 58 174 199 200 201 
128 202 110 202 203 110 204 34 33 
148 145 205 28 206 207 154 156 208 
185 197 140 143 148 209 201 210 211 
174 173 212 206 28 46 213 214 215 
37 140 47 216 217 218 218 219 216 
220 99 221 222 223 224 225 177 178 
226 227 228 168 148 39 183 182 229 
230 231 165 232 233 208 209 234 143 
165 231 235 165 235 132 98 236 99 
178 175 194 153 237 229 153 229 179 
237 153 238 183 229 239 239 165 183 
137 136 240 99 236 221 236 241 242 
243 125 127 233 232 244 245 246 247 
248 246 245 227 246 248 249 206 71 
190 250 251 251 191 190 70 71 206 
204 33 143 143 234 204 68 252 74 
187 192 188 252 73 74 253 254 255 
252 68 73 50 49 64 188 193 256 
206 46 70 65 257 72 44 258 45 
259 178 194 214 260 254 259 261 225 
259 225 178 257 65 45 166 169 262 
227 263 228 264 228 265 266 267 268 
92 266 269 230 165 239 230 270 271 
266 92 272 273 239 229 273 274 239 
123 275 276 277 278 279 44 47 258 
280 229 237 275 123 122 237 238 281 
282 249 283 268 284 266 285 160 54 
286 135 122 249 287 283 288 289 287 
290 288 287 284 268 291 292 69 68 
62 285 293 68 89 292 284 269 266 
54 294 293 177 262 169 295 92 269 
186 90 296 90 92 296 293 285 54 
297 290 287 54 298 294 297 287 249 
130 299 131 249 71 297 297 71 69 
297 69 292 300 301 302 298 303 304 
305 294 298 298 304 305 294 305 304 
258 257 45 296 92 295 115 34 306 
295 269 284 258 47 197 277 307 278 
279 278 308 306 116 115 309 310 311 
249 207 206 309 311 97 309 312 313 
314 306 34 97 99 309 314 291 306 
99 220 309 34 115 139 34 139 32 
295 284 315 315 291 316 315 284 291 
291 317 306 268 317 291 317 116 306 
318 319 320 321 322 319 321 319 323 
279 308 324 325 326 323 155 154 327 
328 329 330 161 170 168 34 331 314 
332 333 329 34 334 331 334 204 234 
335 300 336 316 291 331 291 314 331 
337 338 127 126 200 337 227 248 263 
337 127 126 129 339 130 328 248 245 
340 263 248 341 342 343 153 150 344 
153 344 345 153 345 346 346 238 153 
347 348 162 313 349 332 350 351 352 
333 332 349 162 353 347 354 355 259 
356 357 358 355 354 359 360 359 361 
355 362 363 361 359 364 259 355 363 
365 351 350 361 364 366 367 271 368 
367 348 347 369 358 260 369 370 358 
371 372 373 373 374 371 359 360 355 
309 375 312 360 362 355 368 376 367 
354 176 348 361 366 360 377 313 375 
378 170 171 312 375 313 149 170 161 
379 366 380 375 309 220 131 344 150 
381 360 382 334 34 204 383 384 385 
217 199 211 201 211 199 386 387 388 
209 148 389 148 168 389 233 154 208 
390 391 343 200 199 337 392 343 391 
289 288 393 389 168 170 366 379 382 
382 360 366 171 186 378 283 287 289 
289 282 283 308 244 394 186 296 395 
396 334 234 397 16 8 326 398 323 
321 323 398 10 17 399 378 186 395 
400 397 8 9 8 16 209 389 401 
234 209 401 401 396 234 402 10 399 
8 10 400 402 400 10 17 10 11 
403 404 405 406 407 408 203 408 407 
409 410 392 405 111 411 407 411 203 
111 203 411 410 343 392 203 412 408 
203 111 110 16 397 403 403 397 158 
405 16 403 17 407 399 16 405 17 
411 17 405 411 407 17 162 348 163 
348 367 376 196 156 155 410 413 343 
341 343 413 196 307 195 26 118 29 
410 409 413 414 121 415 120 415 121 
196 155 416 327 417 416 418 419 420 
421 416 417 422 348 376 419 27 121 
422 376 423 27 29 121 422 354 348 
155 327 416 417 389 421 389 170 421 
342 424 425 424 342 341 426 427 428 
429 428 427 427 430 429 163 348 176 
395 428 429 378 395 429 176 354 431 
388 432 342 395 426 428 427 426 433 
426 434 433 196 429 430 429 196 435 
416 421 196 435 196 421 433 307 427 
344 131 436 307 196 430 307 430 427 
378 429 435 378 435 170 435 421 170 
437 438 202 437 202 128 437 128 439 
128 27 439 419 437 439 27 419 439 
387 344 436 440 441 442 443 213 409 
213 413 409 444 244 445 409 392 443 
446 447 448 432 343 342 449 343 432 
450 451 327 451 389 417 154 450 327 
448 447 452 417 327 451 453 444 454 
451 450 453 454 455 453 451 453 455 
233 244 444 154 233 450 453 233 444 
454 396 401 454 456 396 450 233 453 
457 458 423 455 401 389 389 451 455 
454 401 455 456 454 445 422 423 459 
444 445 454 445 460 461 461 456 445 
459 423 458 461 396 456 445 244 460 
244 308 460 462 463 329 464 465 466 
463 330 329 293 294 467 62 293 467 
304 467 294 462 333 377 462 329 333 
313 377 349 392 391 468 469 468 391 
466 50 464 64 464 50 377 375 470 
54 471 298 349 377 333 472 469 390 
54 50 466 469 391 390 471 54 466 
220 221 473 468 469 474 449 472 475 
476 471 466 475 472 390 303 477 304 
475 390 343 449 475 343 136 478 240 
472 479 469 477 471 476 477 298 471 
303 298 477 394 324 308 480 479 472 
481 308 482 483 331 334 483 334 396 
354 422 459 483 316 331 431 354 194 
469 479 474 484 136 147 485 482 308 
486 479 480 474 479 486 366 459 458 
480 487 486 488 486 487 220 473 489 
316 483 490 472 487 480 431 194 176 
316 490 491 460 481 461 490 485 492 
482 490 481 482 485 490 490 493 481 
493 461 481 449 494 472 396 461 483 
495 240 478 461 493 483 493 490 483 
496 497 498 460 308 481 499 497 500 
350 501 502 503 501 357 503 504 501 
505 381 382 497 496 500 487 506 488 
487 500 506 496 506 500 356 507 508 
508 509 356 496 510 506 505 382 379 
446 488 506 381 505 484 500 487 511 
459 366 354 487 472 511 472 512 511 
513 388 387 387 436 513 131 299 436 
514 443 392 515 516 441 441 440 515 
517 518 519 357 356 509 388 449 432 
383 520 384 513 436 521 299 521 436 
385 384 522 141 172 523 524 437 525 
438 437 524 513 526 388 295 395 296 
438 524 527 202 438 527 528 120 529 
437 419 418 28 529 120 388 530 449 
531 485 278 308 278 485 47 140 197 
521 526 513 212 197 184 184 198 212 
174 212 198 532 531 278 532 278 307 
307 433 434 533 395 295 534 535 536 
366 364 354 533 295 537 295 315 537 
538 539 540 316 491 537 354 364 359 
449 541 494 316 537 315 366 542 380 
395 543 426 543 533 434 532 434 533 
537 531 533 543 434 426 544 514 474 
468 514 392 307 434 532 544 474 486 
474 514 468 486 446 544 486 488 446 
354 259 194 395 533 543 532 533 531 
531 537 485 545 512 494 539 546 540 
472 494 512 219 547 216 212 173 141 
212 141 523 548 274 549 280 548 549 
492 485 537 492 537 491 307 258 197 
289 550 282 289 393 550 288 290 393 
376 368 270 506 510 446 24 23 111 
551 510 496 239 270 230 552 551 498 
498 551 496 500 511 553 270 239 457 
554 555 556 553 557 500 222 224 558 
500 557 499 127 338 559 560 300 561 
510 551 446 562 300 335 562 561 300 
491 490 492 336 222 558 557 553 563 
336 558 335 512 563 553 467 564 142 
467 465 564 565 142 564 136 566 478 
567 338 337 565 564 465 465 568 569 
242 473 221 568 465 64 221 236 242 
464 64 465 568 64 570 569 565 465 
511 512 553 565 569 142 568 142 569 
465 467 476 477 476 467 142 62 467 
476 466 465 467 304 477 240 495 571 
571 236 240 571 241 236 509 503 357 
572 573 574 575 243 576 577 509 578 
579 580 223 503 577 581 580 576 243 
223 580 243 503 509 577 243 559 223 
582 478 566 583 584 502 560 585 113 
585 114 113 583 502 501 224 223 559 
556 555 24 556 24 586 559 567 224 
558 224 567 587 339 129 78 24 555 
299 130 339 588 374 373 562 504 561 
561 504 560 335 589 562 369 588 373 
559 338 567 567 584 558 516 567 441 
581 577 560 590 560 591 589 335 584 
335 558 584 504 562 592 578 593 560 
591 560 593 592 562 589 594 560 504 
578 560 577 595 560 590 581 560 594 
587 122 135 489 375 220 596 441 597 
598 520 597 81 80 599 567 597 441 
548 280 237 273 280 549 584 567 516 
229 280 273 274 273 549 600 601 384 
520 600 384 596 597 520 555 77 78 
602 384 601 600 520 598 603 604 595 
585 560 595 595 605 603 604 585 595 
606 603 607 555 75 77 423 270 457 
540 608 535 31 609 610 610 172 31 
470 611 377 612 81 599 31 76 609 
599 613 612 81 612 609 609 76 81 
377 611 462 611 463 462 610 523 172 
555 79 75 87 63 84 207 249 614 
282 550 614 501 504 583 614 249 282 
448 452 372 509 508 593 595 590 508 
592 583 504 615 297 292 594 504 503 
509 593 578 370 369 373 591 593 508 
591 508 590 529 207 616 584 583 589 
583 592 589 594 503 581 597 337 199 
567 337 597 489 617 375 350 502 365 
502 584 365 542 618 380 442 596 383 
97 339 587 447 619 452 97 299 339 
365 516 351 261 177 225 177 261 135 
620 452 619 177 135 286 261 621 147 
607 622 606 623 624 622 625 626 623 
606 622 624 607 603 605 626 627 623 
624 623 627 423 376 270 628 602 629 
601 629 602 365 584 516 383 596 520 
629 630 631 632 633 634 631 630 633 
633 632 635 239 274 636 635 632 637 
555 554 638 622 639 623 637 623 639 
97 640 299 623 637 632 628 629 631 
457 239 636 634 633 630 555 641 642 
626 643 644 626 644 627 0 643 3 
645 3 643 643 0 644 646 644 0 
523 609 613 609 523 610 647 580 648 
238 251 281 647 576 580 97 236 98 
609 612 613 97 587 236 649 650 651 
618 636 274 275 587 276 135 240 587 
135 137 240 275 122 587 240 236 587 
79 555 642 651 652 649 129 276 587 
79 61 653 79 653 85 541 449 530 
653 61 654 63 87 654 86 654 87 
602 628 522 655 539 538 250 190 655 
530 388 526 534 536 618 442 441 596 
515 351 516 522 384 602 216 600 217 
216 601 600 600 199 217 199 598 597 
656 657 658 199 600 598 618 536 380 
535 659 536 660 661 505 662 546 539 
655 190 188 663 94 84 660 585 661 
188 664 655 665 256 193 666 255 667 
666 667 668 669 670 671 256 228 264 
672 264 265 228 256 665 661 673 136 
484 661 136 655 664 539 673 674 136 
80 83 599 675 617 489 676 677 93 
82 93 677 675 489 473 529 28 207 
72 257 66 678 679 255 256 664 188 
473 680 675 136 674 566 652 651 681 
649 682 650 683 393 290 358 370 684 
614 685 686 649 652 687 688 689 690 
691 658 688 688 658 689 614 692 685 
614 550 692 681 693 694 652 694 695 
696 369 443 697 698 658 658 691 697 
649 687 682 687 695 682 544 446 696 
689 658 657 657 690 689 216 547 601 
688 699 691 700 691 699 697 691 700 
700 701 697 698 697 701 682 702 650 
494 541 545 690 253 688 650 702 703 
688 253 704 688 704 699 514 544 696 
701 705 698 443 514 696 650 703 651 
705 706 658 215 253 690 707 703 702 
614 686 207 708 706 705 705 658 698 
702 682 709 692 683 710 683 615 710 
615 683 297 290 297 683 710 686 685 
692 710 685 711 712 701 686 710 615 
713 709 714 715 686 615 716 705 701 
393 683 550 683 692 550 717 207 686 
718 719 711 712 711 719 707 720 703 
721 722 719 723 724 651 704 725 718 
615 726 715 704 718 699 719 718 725 
712 719 722 701 722 727 701 712 722 
703 720 651 720 728 723 723 651 720 
729 414 415 711 700 718 699 718 700 
711 701 700 121 730 731 732 733 728 
733 734 723 728 733 723 94 663 100 
735 669 671 736 720 707 737 470 617 
738 669 735 739 738 735 617 470 375 
738 292 89 702 709 713 89 101 738 
738 101 669 738 740 292 574 671 670 
681 694 652 741 669 663 669 101 663 
101 100 663 706 742 658 82 677 83 
695 687 652 658 742 656 743 345 344 
744 682 695 247 557 563 681 651 745 
746 747 743 724 723 734 746 748 749 
749 748 750 748 751 750 563 245 247 
724 745 651 551 552 446 681 752 693 
753 563 754 753 245 563 260 214 213 
611 470 737 265 755 672 672 755 756 
358 684 757 757 507 358 414 730 121 
758 759 120 415 120 759 120 528 758 
615 292 740 760 670 669 463 611 761 
525 418 762 530 526 763 764 463 219 
763 541 530 588 369 696 463 761 219 
765 425 748 425 751 748 369 260 213 
213 443 369 743 346 345 766 713 714 
743 747 346 611 737 761 766 714 767 
521 299 768 526 521 768 346 747 769 
770 713 766 708 747 749 747 746 749 
749 742 708 742 749 750 713 770 771 
707 772 736 765 386 388 765 748 746 
765 746 386 342 765 388 702 713 771 
743 386 746 768 299 640 617 675 773 
743 344 386 344 387 386 671 574 735 
774 735 574 774 739 735 265 228 755 
573 774 574 670 572 574 7 775 776 
7 776 4 256 264 672 777 86 102 
777 778 654 653 654 778 742 750 779 
742 779 656 604 603 673 780 781 666 
309 782 310 310 782 763 763 782 541 
585 604 673 782 545 541 585 673 661 
654 86 777 778 85 653 103 85 778 
777 102 776 104 776 102 775 105 778 
776 775 777 778 777 775 103 778 105 
5 4 776 5 776 104 6 105 7 
775 7 105 340 248 328 158 783 403 
404 403 783 340 755 263 111 405 404 
404 586 24 404 24 111 159 784 783 
228 263 755 656 779 750 330 785 328 
785 755 340 554 556 404 556 586 404 
786 666 781 673 606 674 620 787 786 
425 424 341 750 425 341 554 788 638 
751 425 750 638 641 555 656 750 657 
341 413 750 657 750 413 507 595 508 
507 789 595 340 328 785 765 342 425 
678 255 254 771 707 702 771 772 707 
664 662 539 674 790 566 255 679 667 
773 675 680 790 624 627 526 768 763 
745 791 752 745 724 791 724 734 791 
370 792 684 373 793 792 794 313 332 
545 313 794 752 681 745 782 309 313 
768 640 97 313 545 782 763 768 97 
763 311 310 507 356 358 371 374 696 
97 311 763 446 371 696 446 372 371 
446 448 372 696 374 588 795 752 791 
736 796 732 619 447 446 770 797 771 
752 795 693 446 552 787 772 771 797 
797 736 772 787 619 446 786 787 552 
619 787 620 791 734 795 728 736 732 
754 332 329 754 329 753 328 753 329 
733 795 734 753 328 245 694 798 799 
732 796 181 714 709 800 794 332 754 
563 794 754 563 512 794 512 545 794 
732 181 733 728 720 736 744 709 682 
523 613 232 61 79 642 61 642 641 
203 202 412 202 527 412 801 802 803 
528 529 616 362 259 363 525 437 418 
803 804 805 420 419 121 806 804 803 
362 621 259 804 807 805 195 307 197 
195 197 212 808 804 806 156 195 212 
638 809 641 638 788 810 811 788 554 
261 259 621 762 812 525 524 525 812 
360 381 362 807 804 808 381 621 362 
813 808 814 813 807 808 381 484 621 
147 621 484 814 808 815 816 814 815 
484 505 661 147 135 261 373 792 370 
664 256 662 412 527 817 817 812 41 
817 524 812 527 524 817 599 83 613 
215 657 413 694 693 798 769 747 708 
373 372 818 742 706 708 372 452 818 
83 677 613 617 819 737 761 737 630 
800 744 820 819 630 737 820 695 821 
800 820 822 744 695 820 60 142 570 
568 570 142 800 822 823 346 824 238 
285 62 61 800 823 767 570 63 61 
60 570 61 63 654 61 570 64 63 
639 684 792 63 825 84 826 757 684 
67 676 88 767 714 800 827 793 373 
709 744 800 821 822 820 818 827 373 
798 693 828 769 824 346 821 695 799 
799 695 694 631 633 818 95 88 676 
818 452 522 822 821 829 93 95 676 
324 676 67 830 798 828 831 821 799 
832 789 507 757 832 507 637 793 827 
821 831 829 831 799 798 229 798 830 
663 84 741 693 795 828 825 117 741 
572 670 760 739 774 573 179 830 180 
669 741 760 830 828 180 819 617 773 
773 632 819 828 795 180 219 761 547 
761 630 547 833 738 739 180 733 181 
795 733 180 324 67 66 394 676 324 
167 813 814 813 167 807 164 816 162 
353 816 815 254 260 834 138 117 825 
741 84 825 167 816 164 353 162 816 
672 756 835 814 816 167 117 836 741 
741 836 760 668 837 666 780 666 837 
756 755 764 755 785 764 672 835 256 
738 833 740 726 760 836 760 726 740 
838 722 721 833 572 760 740 833 760 
330 463 785 766 767 839 786 781 840 
833 739 573 839 841 766 833 573 572 
116 726 836 116 836 117 722 838 842 
842 727 722 726 615 740 727 842 843 
844 736 797 845 838 846 844 796 736 
41 40 817 847 844 797 838 845 842 
205 817 40 848 845 849 842 845 848 
554 784 811 497 849 845 845 498 497 
797 770 847 849 497 499 770 766 847 
810 788 811 731 420 121 848 849 850 
810 809 638 92 91 762 630 819 634 
786 840 620 641 809 851 764 785 463 
523 232 208 238 824 251 851 809 32 
160 285 61 61 851 160 517 519 540 
32 160 851 608 540 519 49 51 138 
51 32 138 138 63 49 690 657 215 
63 138 825 852 853 659 535 854 659 
61 641 851 854 535 608 517 540 546 
809 810 146 809 146 855 125 517 546 
404 783 784 554 404 784 222 336 853 
146 856 205 784 159 412 412 817 784 
528 762 857 856 784 858 420 398 762 
857 762 398 839 859 841 721 719 666 
528 857 758 418 420 762 719 725 666 
802 801 859 133 132 802 716 701 226 
716 193 192 716 192 705 841 859 801 
132 235 860 766 841 861 801 803 805 
251 824 191 254 215 214 862 803 802 
132 860 862 673 603 606 860 806 862 
802 132 862 841 863 861 860 864 806 
624 674 606 624 790 674 861 847 766 
622 607 789 622 789 832 826 622 832 
605 789 607 595 789 605 680 625 773 
864 860 235 847 865 844 773 625 623 
847 861 865 680 643 626 680 626 625 
865 129 844 832 757 826 635 637 827 
151 181 866 231 864 235 151 866 152 
844 867 796 257 307 277 856 858 205 
811 784 856 145 146 205 212 523 156 
858 784 817 817 205 858 826 639 622 
717 616 207 856 146 810 811 856 810 
792 637 639 637 792 793 855 146 144 
826 684 639 267 616 717 855 144 32 
659 853 536 518 517 125 809 855 32 
635 827 818 156 523 208 232 613 394 
613 677 394 818 522 631 522 628 631 
818 633 635 302 379 380 394 677 676 
394 244 232 868 125 662 844 866 867 
632 634 819 301 379 302 181 796 867 
867 866 181 773 623 632 336 300 302 
151 179 181 151 153 179 841 801 863 
805 863 801 805 807 863 200 126 868 
863 807 869 629 547 630 601 547 629 
125 868 126 546 662 125 536 336 302 
302 380 536 853 336 536 679 678 870 
871 863 124 187 705 192 678 254 870 
863 871 861 865 123 276 705 187 708 
253 215 254 868 256 835 129 865 276 
189 191 872 123 865 124 189 708 187 
868 662 256 866 844 152 666 725 255 
152 844 129 131 152 129 704 255 725 
704 253 255 193 716 665 716 226 665 
873 756 764 861 871 865 865 871 124 
210 835 756 824 769 872 872 769 708 
191 824 872 189 872 708 869 807 167 
272 528 616 473 242 874 166 262 167 
571 875 241 262 869 167 473 643 680 
257 258 307 876 2 1 876 1 877 
262 177 124 645 877 3 874 242 241 
869 124 863 869 262 124 878 715 726 
124 177 286 286 122 124 762 272 92 
762 528 272 213 215 413 616 267 272 
666 846 838 666 838 721 862 806 803 
266 272 267 228 665 226 727 226 701 
66 257 279 279 257 277 727 843 226 
842 850 843 227 226 843 879 498 845 
324 66 279 267 880 268 880 267 717 
879 845 846 666 879 846 806 881 808 
842 848 850 116 317 268 882 806 864 
806 882 881 808 881 815 878 268 880 
880 715 878 850 499 557 231 882 864 
850 557 247 878 116 268 715 880 686 
880 717 686 883 881 882 878 726 116 
849 499 850 850 247 246 783 158 157 
786 552 498 879 786 498 157 159 783 
400 158 397 666 786 879 408 884 406 
850 246 227 885 884 408 399 406 402 
884 885 406 406 158 402 400 402 158 
158 406 885 843 850 227 780 385 781 
406 399 407 885 159 158 318 886 887 
888 318 887 730 414 729 320 730 729 
729 889 320 887 729 888 886 889 887 
889 729 887 320 889 318 886 318 889 
870 254 352 415 888 729 888 415 759 
534 618 535 318 323 319 322 320 319 
318 325 323 548 535 618 535 548 540 
758 857 326 398 326 857 759 318 888 
758 326 759 318 759 325 780 837 385 
241 890 874 398 420 731 644 790 627 
582 566 644 566 790 644 875 876 890 
582 876 875 646 876 582 876 646 0 
2 876 0 875 495 478 582 644 646 
1 3 877 891 320 892 877 645 874 
320 891 730 892 320 893 478 582 875 
874 890 877 877 890 876 352 515 870 
892 893 894 571 495 875 730 891 731 
890 241 875 874 645 643 325 759 326 
874 643 473 398 731 891 891 892 398 
892 894 895 893 895 894 618 274 548 
896 895 893 540 655 538 540 548 655 
896 893 322 893 320 322 892 895 398 
896 322 895 347 353 897 895 322 321 
895 321 398 149 41 96 96 898 91 
458 457 542 618 457 636 41 812 898 
457 618 542 898 96 41 96 171 149 
230 271 231 271 270 368 91 898 762 
812 762 898 408 412 885 237 899 548 
159 885 412 148 40 39 251 655 899 
281 251 899 148 205 40 548 899 655 
899 237 281 655 251 250 271 883 900 
882 231 900 883 882 900 366 458 542 
515 440 870 870 383 668 668 385 837 
870 668 667 383 385 668 679 870 667 
442 383 870 210 200 835 200 868 835 
815 881 883 440 442 870 201 200 210 
834 358 357 352 351 515 501 834 357 
352 254 834 260 358 834 883 271 897 
501 350 352 883 897 815 352 834 501 
873 218 217 897 367 347 897 353 815 
211 210 873 210 756 873 217 211 873 
385 620 840 897 271 367 385 522 452 
840 781 385 452 620 385 271 900 231 
218 873 764 219 218 764 901 902 182 
648 903 904 648 904 647 901 822 902 
905 519 518 852 223 853 223 222 853 
647 904 576 575 576 904 904 905 518 
904 518 575 823 906 907 908 905 903 
903 905 904 608 519 908 905 908 519 
903 579 852 852 908 903 579 903 580 
648 580 903 908 659 854 908 854 608 
243 575 518 125 243 518 852 579 223 
659 908 852 243 127 559 767 907 839 
301 505 379 505 301 660 906 134 133 
301 300 560 660 301 560 113 112 660 
660 560 113 859 839 907 114 585 112 
660 112 585 907 767 823 907 133 802 
907 906 133 907 802 859 906 822 901 
906 823 822 798 229 831 229 902 831 
830 179 229 822 829 902 229 182 902 
902 829 831 182 134 901 134 182 165 
134 906 901 
